<svg xmlns="http://www.w3.org/2000/svg" width="600" height="820" viewBox="0 0 600 820"><rect width="600" height="820" fill="#e6f2dd"/><rect x="561.6" y="383.5" width="12" height="4" rx="2" fill="#e6aace" transform="rotate(88.7 561.6 383.5)" opacity=".8"/><rect x="376.3" y="426.3" width="12" height="4" rx="2" fill="#f4d35e" transform="rotate(64.8 376.3 426.3)" opacity=".8"/><rect x="401" y="201.6" width="12" height="4" rx="2" fill="#f4d35e" transform="rotate(89.4 401 201.6)" opacity=".8"/><rect x="398.5" y="689.8" width="12" height="4" rx="2" fill="#7fb069" transform="rotate(91 398.5 689.8)" opacity=".8"/><rect x="180.9" y="404.8" width="12" height="4" rx="2" fill="#f4d35e" transform="rotate(1 180.9 404.8)" opacity=".8"/><rect x="460.4" y="610.8" width="12" height="4" rx="2" fill="#7fb069" transform="rotate(91.9 460.4 610.8)" opacity=".8"/><rect x="510.5" y="319.1" width="12" height="4" rx="2" fill="#7fb069" transform="rotate(93.3 510.5 319.1)" opacity=".8"/><rect x="286.8" y="451.1" width="12" height="4" rx="2" fill="#e6aace" transform="rotate(41.2 286.8 451.1)" opacity=".8"/><rect x="199.2" y="224.7" width="12" height="4" rx="2" fill="#7fb069" transform="rotate(126.7 199.2 224.7)" opacity=".8"/><rect x="452.8" y="585.4" width="12" height="4" rx="2" fill="#f4d35e" transform="rotate(17.9 452.8 585.4)" opacity=".8"/><rect x="217.3" y="149.5" width="12" height="4" rx="2" fill="#f4d35e" transform="rotate(100.8 217.3 149.5)" opacity=".8"/><rect x="589.5" y="649.6" width="12" height="4" rx="2" fill="#f4d35e" transform="rotate(89.5 589.5 649.6)" opacity=".8"/><rect x="224.1" y="374.8" width="12" height="4" rx="2" fill="#7fb069" transform="rotate(114.4 224.1 374.8)" opacity=".8"/><rect x="558.8" y="582.4" width="12" height="4" rx="2" fill="#e6aace" transform="rotate(51.9 558.8 582.4)" opacity=".8"/><rect x="235.1" y="743.9" width="12" height="4" rx="2" fill="#e6aace" transform="rotate(56.7 235.1 743.9)" opacity=".8"/><rect x="366.2" y="143.7" width="12" height="4" rx="2" fill="#f4d35e" transform="rotate(59.1 366.2 143.7)" opacity=".8"/><rect x="61.9" y="728.7" width="12" height="4" rx="2" fill="#f4d35e" transform="rotate(114.4 61.9 728.7)" opacity=".8"/><rect x="124.5" y="131.9" width="12" height="4" rx="2" fill="#7fb069" transform="rotate(35.5 124.5 131.9)" opacity=".8"/><rect x="337.4" y="131.7" width="12" height="4" rx="2" fill="#e6aace" transform="rotate(14.8 337.4 131.7)" opacity=".8"/><rect x="449.4" y="632.8" width="12" height="4" rx="2" fill="#e6aace" transform="rotate(161.7 449.4 632.8)" opacity=".8"/><rect x="416.5" y="808.6" width="12" height="4" rx="2" fill="#7fb069" transform="rotate(23 416.5 808.6)" opacity=".8"/><rect x="216.3" y="23.3" width="12" height="4" rx="2" fill="#e6aace" transform="rotate(144 216.3 23.3)" opacity=".8"/><rect x="336.8" y="552.8" width="12" height="4" rx="2" fill="#f4d35e" transform="rotate(18.6 336.8 552.8)" opacity=".8"/><rect x="362.6" y="109.4" width="12" height="4" rx="2" fill="#7fb069" transform="rotate(85.4 362.6 109.4)" opacity=".8"/><rect x="194.1" y="593" width="12" height="4" rx="2" fill="#7fb069" transform="rotate(101 194.1 593)" opacity=".8"/><rect x="261.9" y="447.4" width="12" height="4" rx="2" fill="#e6aace" transform="rotate(156.6 261.9 447.4)" opacity=".8"/><ellipse cx="300" cy="584" rx="230" ry="52" fill="#fff"/><ellipse cx="300" cy="584" rx="190" ry="38" fill="#d3e8c4"/><rect x="150" y="372" width="300" height="40" fill="#a7c97a"/><rect x="150" y="434" width="300" height="40" fill="#fbfff5"/><rect x="150" y="496" width="300" height="70" fill="#a7c97a"/><path d="M142 372 q20 -30 40 0 t40 0 t40 0 t40 0 t40 0 t40 0 t40 0 t40 0 v12 h-316 Z" fill="#fbfff5"/><g transform="translate(205 352)"><path d="M-20 -6 Q0 40 20 -6 Q0 -18 -20 -6 Z" fill="#e8364f"/><path d="M-10 -12 L0 -4 L10 -12 L4 -16 L0 -10 L-4 -16 Z" fill="#3fa34d"/></g><g transform="translate(270 352)"><path d="M-20 -6 Q0 40 20 -6 Q0 -18 -20 -6 Z" fill="#e8364f"/><path d="M-10 -12 L0 -4 L10 -12 L4 -16 L0 -10 L-4 -16 Z" fill="#3fa34d"/></g><g transform="translate(335 352)"><path d="M-20 -6 Q0 40 20 -6 Q0 -18 -20 -6 Z" fill="#e8364f"/><path d="M-10 -12 L0 -4 L10 -12 L4 -16 L0 -10 L-4 -16 Z" fill="#3fa34d"/></g><g transform="translate(400 352)"><path d="M-20 -6 Q0 40 20 -6 Q0 -18 -20 -6 Z" fill="#e8364f"/><path d="M-10 -12 L0 -4 L10 -12 L4 -16 L0 -10 L-4 -16 Z" fill="#3fa34d"/></g></svg>
