<svg xmlns="http://www.w3.org/2000/svg" width="600" height="720" viewBox="0 0 600 720"><rect width="600" height="720" fill="#ffe8cc"/><circle cx="90" cy="612" r="46" fill="#5a9bd4"/><path d="M50 602 q40 -30 80 0 M46 620 q44 -26 88 0" stroke="#fff" stroke-width="3" fill="none" opacity=".6"/><path d="M130 612 q80 20 140 -30" stroke="#5a9bd4" stroke-width="3" fill="none"/><ellipse cx="300" cy="524.4" rx="170" ry="120" fill="#f4a259"/><path d="M170 334.4 L190 204.4 L260 274.4 Z M430 334.4 L410 204.4 L340 274.4 Z" fill="#f4a259"/><path d="M188 304.4 L196 234.4 L238 274.4 Z M412 304.4 L404 234.4 L362 274.4 Z" fill="#ffb5a7"/><ellipse cx="300" cy="374.4" rx="150" ry="125" fill="#f4a259"/><path d="M150 374.4 Q180 264.4 280 254.4 Q250 344.4 150 374.4 Z" fill="#e07a3f"/><ellipse cx="245" cy="369.4" rx="20" ry="26" fill="#2b2b2b"/><ellipse cx="355" cy="369.4" rx="20" ry="26" fill="#2b2b2b"/><circle cx="252" cy="360.4" r="7" fill="#fff"/><circle cx="362" cy="360.4" r="7" fill="#fff"/><path d="M288 404.4 L312 404.4 L300 418.4 Z" fill="#ff8fa3"/><path d="M300 418.4 q-14 18 -30 8 M300 418.4 q14 18 30 8" stroke="#2b2b2b" stroke-width="3" fill="none" stroke-linecap="round"/><path d="M230 410.4 l-80 -14" stroke="#2b2b2b" stroke-width="2" opacity=".5"/><path d="M230 420.4 l-80 0" stroke="#2b2b2b" stroke-width="2" opacity=".5"/><path d="M230 430.4 l-80 14" stroke="#2b2b2b" stroke-width="2" opacity=".5"/><path d="M370 410.4 l80 -14" stroke="#2b2b2b" stroke-width="2" opacity=".5"/><path d="M370 420.4 l80 0" stroke="#2b2b2b" stroke-width="2" opacity=".5"/><path d="M370 430.4 l80 14" stroke="#2b2b2b" stroke-width="2" opacity=".5"/><ellipse cx="205" cy="414.4" rx="20" ry="11" fill="#ff8fa3" opacity=".45"/><ellipse cx="395" cy="414.4" rx="20" ry="11" fill="#ff8fa3" opacity=".45"/></svg>
