<?xml version="1.0" encoding="UTF-8"?>
<svg xmlns="http://www.w3.org/2000/svg" width="900" height="720" viewBox="0 0 900 720" role="img" aria-labelledby="title desc">
  <title id="title">COASTAL BLUE</title>
  <desc id="desc">A locally stored vector illustration for the 小蓝书 inspiration feed.</desc>
  <defs>
    <linearGradient id="paper" x1="0" y1="0" x2="1" y2="1"><stop stop-color="#e3f3f3"/><stop offset="1" stop-color="#b9dce8"/></linearGradient>
    <pattern id="grain" width="28" height="28" patternUnits="userSpaceOnUse"><circle cx="4" cy="4" r="1.2" fill="#345d78" opacity=".055"/><circle cx="19" cy="17" r=".9" fill="#345d78" opacity=".045"/></pattern>
  </defs>
  <rect width="900" height="720" fill="url(#paper)"/>
  <rect width="900" height="720" fill="url(#grain)"/>
  <circle cx="752" cy="160" r="130" fill="#f1cf98" opacity=".15"/>
  <circle cx="121" cy="511" r="91" fill="#6b9d9b" opacity=".09"/>
  <path d="M0 583c160-58 271 26 430-5s284-76 470-1v144H0V583Z" fill="#e3f3f3" opacity=".38"/>
  <text x="65" y="87" fill="#345d78" font-family="Avenir Next,Arial,sans-serif" font-size="22" font-weight="700" letter-spacing="5" opacity=".77">COASTAL BLUE</text>
  <path d="M65 115h66" stroke="#f1cf98" stroke-width="6" stroke-linecap="round"/>
  <g transform="translate(0 -20)"><circle cx="662" cy="305" r="91" fill="#f1cf98"/><path d="m105 532 210-235 166 175 128-137 195 197v142H105V532Z" fill="#77b4c7"/><path d="m105 574 214-168 164 135 139-93 182 149v94H105v-117Z" fill="#6b9d9b"/><path d="M105 590c79-24 142-24 214 0s142 24 214 0 142-24 214 0 58 20 91 18v161H105V590Z" fill="#e3f3f3"/><path d="M105 632c79-24 142-24 214 0s142 24 214 0 142-24 214 0 58 20 91 18" fill="none" stroke="#77b4c7" stroke-width="12" stroke-linecap="round"/><path d="M105 686c79-24 142-24 214 0s142 24 214 0 142-24 214 0 58 20 91 18" fill="none" stroke="#77b4c7" stroke-width="8" stroke-linecap="round" opacity=".65"/><path d="M286 522h92m-68-19 48 38" stroke="#345d78" stroke-width="8" stroke-linecap="round" opacity=".65"/></g>
  <text x="65" y="654" fill="#345d78" font-family="Avenir Next,Arial,sans-serif" font-size="19" font-weight="600" letter-spacing="3" opacity=".65">A SMALL JOY TO KEEP</text>
  <circle cx="832" cy="647" r="12" fill="#f1cf98" opacity=".8"/>
</svg>