<svg xmlns="http://www.w3.org/2000/svg" width="600" height="640" viewBox="0 0 600 640"><rect width="600" height="640" fill="#fef6f0"/><circle cx="90" cy="544" r="46" fill="#8bc34a"/><path d="M50 534 q40 -30 80 0 M46 552 q44 -26 88 0" stroke="#fff" stroke-width="3" fill="none" opacity=".6"/><path d="M130 544 q80 20 140 -30" stroke="#8bc34a" stroke-width="3" fill="none"/><ellipse cx="300" cy="482.8" rx="170" ry="120" fill="#ffffff"/><path d="M170 292.8 L190 162.8 L260 232.8 Z M430 292.8 L410 162.8 L340 232.8 Z" fill="#ffffff"/><path d="M188 262.8 L196 192.8 L238 232.8 Z M412 262.8 L404 192.8 L362 232.8 Z" fill="#ffc9d6"/><ellipse cx="300" cy="332.8" rx="150" ry="125" fill="#ffffff"/><ellipse cx="245" cy="327.8" rx="20" ry="26" fill="#2b2b2b"/><ellipse cx="355" cy="327.8" rx="20" ry="26" fill="#2b2b2b"/><circle cx="252" cy="318.8" r="7" fill="#fff"/><circle cx="362" cy="318.8" r="7" fill="#fff"/><path d="M288 362.8 L312 362.8 L300 376.8 Z" fill="#ff8fa3"/><path d="M300 376.8 q-14 18 -30 8 M300 376.8 q14 18 30 8" stroke="#2b2b2b" stroke-width="3" fill="none" stroke-linecap="round"/><path d="M230 368.8 l-80 -14" stroke="#2b2b2b" stroke-width="2" opacity=".5"/><path d="M230 378.8 l-80 0" stroke="#2b2b2b" stroke-width="2" opacity=".5"/><path d="M230 388.8 l-80 14" stroke="#2b2b2b" stroke-width="2" opacity=".5"/><path d="M370 368.8 l80 -14" stroke="#2b2b2b" stroke-width="2" opacity=".5"/><path d="M370 378.8 l80 0" stroke="#2b2b2b" stroke-width="2" opacity=".5"/><path d="M370 388.8 l80 14" stroke="#2b2b2b" stroke-width="2" opacity=".5"/><ellipse cx="205" cy="372.8" rx="20" ry="11" fill="#ff8fa3" opacity=".45"/><ellipse cx="395" cy="372.8" rx="20" ry="11" fill="#ff8fa3" opacity=".45"/></svg>
