<?xml version="1.0" encoding="UTF-8"?>
<svg xmlns="http://www.w3.org/2000/svg" width="900" height="760" viewBox="0 0 900 760" role="img" aria-labelledby="title desc">
  <title id="title">A LITTLE MOMENT</title>
  <desc id="desc">A locally stored vector illustration for the 小蓝书 inspiration feed.</desc>
  <defs>
    <linearGradient id="paper" x1="0" y1="0" x2="1" y2="1"><stop stop-color="#faf5f3"/><stop offset="1" stop-color="#eee8e9"/></linearGradient>
    <pattern id="grain" width="28" height="28" patternUnits="userSpaceOnUse"><circle cx="4" cy="4" r="1.2" fill="#7e727a" opacity=".055"/><circle cx="19" cy="17" r=".9" fill="#7e727a" opacity=".045"/></pattern>
  </defs>
  <rect width="900" height="760" fill="url(#paper)"/>
  <rect width="900" height="760" fill="url(#grain)"/>
  <circle cx="752" cy="160" r="130" fill="#e9a5af" opacity=".15"/>
  <circle cx="121" cy="540" r="91" fill="#a5b59c" opacity=".09"/>
  <path d="M0 616c160-58 271 26 430-5s284-76 470-1v152H0V616Z" fill="#faf5f3" opacity=".38"/>
  <text x="65" y="87" fill="#7e727a" font-family="Avenir Next,Arial,sans-serif" font-size="22" font-weight="700" letter-spacing="5" opacity=".77">A LITTLE MOMENT</text>
  <path d="M65 115h66" stroke="#e9a5af" stroke-width="6" stroke-linecap="round"/>
  <g transform="translate(0 0)"><rect x="193" y="232" width="514" height="396" rx="38" fill="#faf5f3" stroke="#7e727a" stroke-width="10" stroke-dasharray="15 17"/><circle cx="584" cy="315" r="51" fill="#e9a5af"/><path d="m252 568 119-133 91 96 70-72 112 109H252Z" fill="#a5b59c" opacity=".82"/><path d="M352 679h196m-158 22h120" stroke="#d9c5c8" stroke-width="10" stroke-linecap="round"/><circle cx="449" cy="426" r="20" fill="#d9c5c8"/></g>
  <text x="65" y="694" fill="#7e727a" font-family="Avenir Next,Arial,sans-serif" font-size="19" font-weight="600" letter-spacing="3" opacity=".65">A SMALL JOY TO KEEP</text>
  <circle cx="832" cy="687" r="12" fill="#e9a5af" opacity=".8"/>
</svg>