<?xml version="1.0" encoding="UTF-8"?>
<svg xmlns="http://www.w3.org/2000/svg" width="900" height="860" viewBox="0 0 900 860" role="img" aria-labelledby="title desc">
  <title id="title">MADE BY HAND</title>
  <desc id="desc">A locally stored vector illustration for the 小蓝书 inspiration feed.</desc>
  <defs>
    <linearGradient id="paper" x1="0" y1="0" x2="1" y2="1"><stop stop-color="#fff1dd"/><stop offset="1" stop-color="#ead9ce"/></linearGradient>
    <pattern id="grain" width="28" height="28" patternUnits="userSpaceOnUse"><circle cx="4" cy="4" r="1.2" fill="#56484b" opacity=".055"/><circle cx="19" cy="17" r=".9" fill="#56484b" opacity=".045"/></pattern>
  </defs>
  <rect width="900" height="860" fill="url(#paper)"/>
  <rect width="900" height="860" fill="url(#grain)"/>
  <circle cx="752" cy="160" r="130" fill="#dfaa8d" opacity=".15"/>
  <circle cx="121" cy="611" r="91" fill="#798866" opacity=".09"/>
  <path d="M0 697c160-58 271 26 430-5s284-76 470-1v172H0V697Z" fill="#fff1dd" opacity=".38"/>
  <text x="65" y="87" fill="#56484b" font-family="Avenir Next,Arial,sans-serif" font-size="22" font-weight="700" letter-spacing="5" opacity=".77">MADE BY HAND</text>
  <path d="M65 115h66" stroke="#dfaa8d" stroke-width="6" stroke-linecap="round"/>
  <g transform="translate(0 50)"><ellipse cx="460" cy="706" rx="226" ry="39" fill="#56484b" opacity=".12"/><path d="M388 437c-4 56-20 101-61 168-23 39-6 91 44 105 56 15 128 15 184 0 50-14 67-66 44-105-41-67-57-112-61-168H388Z" fill="#c09175" stroke="#56484b" stroke-width="10"/><ellipse cx="462" cy="437" rx="74" ry="21" fill="#fff1dd" stroke="#56484b" stroke-width="9"/><path d="M462 430V236m0 143c-78-54-125-48-144-13 37 45 83 57 144 32Zm1-66c63-83 119-87 149-52-34 59-85 76-149 52Zm-1-129c-47-46-47-94-9-126 47 18 61 59 9 126Z" fill="#798866" stroke="#56484b" stroke-width="7" stroke-linejoin="round"/><circle cx="318" cy="361" r="23" fill="#dfaa8d"/><circle cx="607" cy="325" r="21" fill="#dfaa8d"/><circle cx="453" cy="247" r="22" fill="#dfaa8d"/><path d="M412 524c30 15 68 15 99 0" fill="none" stroke="#fff1dd" stroke-width="8" stroke-linecap="round" opacity=".6"/></g>
  <text x="65" y="794" fill="#56484b" font-family="Avenir Next,Arial,sans-serif" font-size="19" font-weight="600" letter-spacing="3" opacity=".65">A SMALL JOY TO KEEP</text>
  <circle cx="832" cy="787" r="12" fill="#dfaa8d" opacity=".8"/>
</svg>